# xmcd
#
# Track frame offsets:
#	150
#	20047
#	37340
#	61339
#	79273
#	104038
#	138298
#	157040
#	175412
#	190711
#	210374
#	240044
#	257944
#
# Disc length: 3970 seconds
#
# Revision: 7
# Processed by: cddbd v1.5.2PL0 Copyright (c) Steve Scherf et al.
# Submitted via: audiograbber 1.83.01
#
DISCID=b50f800d
DTITLE=Angus and Julia Stone - Down The Way
DYEAR=2010
DGENRE=Folk
TTITLE0=Hold On
TTITLE1=Black Crow
TTITLE2=For You
TTITLE3=Big Jet Plane
TTITLE4=Santa Monica Dream
TTITLE5=Yellow Brick Road
TTITLE6=And The Boys
TTITLE7=On The Road
TTITLE8=Walk It Off
TTITLE9=Hush
TTITLE10=Draw Your Swords
TTITLE11=I'm Not Yours
TTITLE12=The Devil's Tears
EXTD=
EXTT0=
EXTT1=
EXTT2=
EXTT3=
EXTT4=
EXTT5=
EXTT6=
EXTT7=
EXTT8=
EXTT9=
EXTT10=
EXTT11=
EXTT12=
PLAYORDER=
